<mxfile host="app.diagrams.net" modified="2023-04-03T14:48:03.252Z" agent="5.0 (X11)" etag="ERVgHFFyKTsWsWUQZRHI" version="21.0.6" type="github">
  <diagram id="C5RBs43oDa-KdzZeNtuy" name="Page-1">
    <mxGraphModel dx="5530" dy="3440" grid="1" gridSize="10" guides="1" tooltips="1" connect="1" arrows="1" fold="1" page="1" pageScale="1" pageWidth="827" pageHeight="1169" math="0" shadow="0">
      <root>
        <mxCell id="WIyWlLk6GJQsqaUBKTNV-0" />
        <mxCell id="WIyWlLk6GJQsqaUBKTNV-1" parent="WIyWlLk6GJQsqaUBKTNV-0" />
        <mxCell id="XfDkWS_DAa20V64On1dj-6" value="&lt;b&gt;pub trait MqttSending&lt;/b&gt;" style="swimlane;fontStyle=0;childLayout=stackLayout;horizontal=1;startSize=30;horizontalStack=0;resizeParent=1;resizeParentMax=0;resizeLast=0;collapsible=1;marginBottom=0;whiteSpace=wrap;html=1;" vertex="1" parent="WIyWlLk6GJQsqaUBKTNV-1">
          <mxGeometry x="-39" y="220" width="160" height="120" as="geometry" />
        </mxCell>
        <mxCell id="XfDkWS_DAa20V64On1dj-7" value="fn serialize(&amp;amp;self)-&amp;gt;String;&lt;br&gt;    fn topic(&amp;amp;self)-&amp;gt;&amp;amp;str;&lt;br&gt;    fn qos(&amp;amp;self)-&amp;gt;i32;&lt;br&gt;    fn bat_ic_low(&amp;amp;self)-&amp;gt;bool;" style="text;strokeColor=none;fillColor=none;align=left;verticalAlign=middle;spacingLeft=4;spacingRight=4;overflow=hidden;points=[[0,0.5],[1,0.5]];portConstraint=eastwest;rotatable=0;whiteSpace=wrap;html=1;" vertex="1" parent="XfDkWS_DAa20V64On1dj-6">
          <mxGeometry y="30" width="160" height="90" as="geometry" />
        </mxCell>
        <mxCell id="XfDkWS_DAa20V64On1dj-18" style="edgeStyle=orthogonalEdgeStyle;rounded=0;orthogonalLoop=1;jettySize=auto;html=1;exitX=1;exitY=0.5;exitDx=0;exitDy=0;entryX=0;entryY=0.25;entryDx=0;entryDy=0;endArrow=none;endFill=0;startArrow=block;startFill=0;strokeWidth=2;" edge="1" parent="WIyWlLk6GJQsqaUBKTNV-1" source="XfDkWS_DAa20V64On1dj-10" target="XfDkWS_DAa20V64On1dj-12">
          <mxGeometry relative="1" as="geometry">
            <Array as="points">
              <mxPoint x="166" y="385" />
              <mxPoint x="166" y="315" />
            </Array>
          </mxGeometry>
        </mxCell>
        <mxCell id="XfDkWS_DAa20V64On1dj-10" value="&lt;b&gt;trait Display&lt;/b&gt;" style="swimlane;fontStyle=0;childLayout=stackLayout;horizontal=1;startSize=30;horizontalStack=0;resizeParent=1;resizeParentMax=0;resizeLast=0;collapsible=1;marginBottom=0;whiteSpace=wrap;html=1;" vertex="1" parent="WIyWlLk6GJQsqaUBKTNV-1">
          <mxGeometry x="-39" y="360" width="110" height="50" as="geometry" />
        </mxCell>
        <mxCell id="XfDkWS_DAa20V64On1dj-24" style="edgeStyle=orthogonalEdgeStyle;rounded=0;orthogonalLoop=1;jettySize=auto;html=1;exitX=1;exitY=0.25;exitDx=0;exitDy=0;entryX=1;entryY=0.25;entryDx=0;entryDy=0;startArrow=block;startFill=0;endArrow=none;endFill=0;strokeWidth=2;" edge="1" parent="WIyWlLk6GJQsqaUBKTNV-1" source="XfDkWS_DAa20V64On1dj-12" target="XfDkWS_DAa20V64On1dj-19">
          <mxGeometry relative="1" as="geometry" />
        </mxCell>
        <mxCell id="XfDkWS_DAa20V64On1dj-32" style="edgeStyle=orthogonalEdgeStyle;rounded=0;orthogonalLoop=1;jettySize=auto;html=1;exitX=1;exitY=0.25;exitDx=0;exitDy=0;entryX=1;entryY=0.25;entryDx=0;entryDy=0;startArrow=block;startFill=0;endArrow=none;endFill=0;strokeWidth=2;" edge="1" parent="WIyWlLk6GJQsqaUBKTNV-1" source="XfDkWS_DAa20V64On1dj-12" target="XfDkWS_DAa20V64On1dj-28">
          <mxGeometry relative="1" as="geometry" />
        </mxCell>
        <mxCell id="XfDkWS_DAa20V64On1dj-12" value="&lt;b&gt;pub trait RequestObject : MqttSending + Display&lt;/b&gt;" style="swimlane;fontStyle=0;childLayout=stackLayout;horizontal=1;startSize=30;horizontalStack=0;resizeParent=1;resizeParentMax=0;resizeLast=0;collapsible=1;marginBottom=0;whiteSpace=wrap;html=1;" vertex="1" parent="WIyWlLk6GJQsqaUBKTNV-1">
          <mxGeometry x="201" y="300" width="470" height="60" as="geometry" />
        </mxCell>
        <mxCell id="XfDkWS_DAa20V64On1dj-13" value="fn insert_data&amp;lt;&#39;a&amp;gt;(&amp;amp;mut self, bus: &amp;amp;&#39;a Modbus)-&amp;gt;Result&amp;lt;(), Box&amp;lt;dyn Error + &#39;a&amp;gt;&amp;gt;" style="text;strokeColor=none;fillColor=none;align=left;verticalAlign=middle;spacingLeft=4;spacingRight=4;overflow=hidden;points=[[0,0.5],[1,0.5]];portConstraint=eastwest;rotatable=0;whiteSpace=wrap;html=1;" vertex="1" parent="XfDkWS_DAa20V64On1dj-12">
          <mxGeometry y="30" width="470" height="30" as="geometry" />
        </mxCell>
        <mxCell id="XfDkWS_DAa20V64On1dj-17" style="edgeStyle=orthogonalEdgeStyle;rounded=0;orthogonalLoop=1;jettySize=auto;html=1;entryX=0;entryY=0.25;entryDx=0;entryDy=0;endArrow=none;endFill=0;startArrow=blockThin;startFill=0;strokeWidth=2;" edge="1" parent="WIyWlLk6GJQsqaUBKTNV-1" source="XfDkWS_DAa20V64On1dj-7" target="XfDkWS_DAa20V64On1dj-12">
          <mxGeometry relative="1" as="geometry">
            <Array as="points">
              <mxPoint x="166" y="295" />
              <mxPoint x="166" y="315" />
            </Array>
          </mxGeometry>
        </mxCell>
        <mxCell id="XfDkWS_DAa20V64On1dj-19" value="&lt;div style=&quot;font-family: &amp;quot;Droid Sans Mono&amp;quot;, &amp;quot;monospace&amp;quot;, monospace; font-weight: normal; font-size: 16px; line-height: 22px;&quot;&gt;&lt;div style=&quot;font-size: 12px;&quot;&gt;&lt;p&gt;&lt;font face=&quot;Helvetica&quot;&gt;&lt;b&gt;&lt;font style=&quot;font-size: 12px;&quot; color=&quot;#080808&quot;&gt;trait ModbusData : RequestObject&lt;/font&gt;&lt;/b&gt;&lt;/font&gt;&lt;/p&gt;&lt;/div&gt;&lt;/div&gt;" style="swimlane;fontStyle=0;childLayout=stackLayout;horizontal=1;startSize=30;horizontalStack=0;resizeParent=1;resizeParentMax=0;resizeLast=0;collapsible=1;marginBottom=0;whiteSpace=wrap;html=1;" vertex="1" parent="WIyWlLk6GJQsqaUBKTNV-1">
          <mxGeometry x="201" y="390" width="560" height="80" as="geometry" />
        </mxCell>
        <mxCell id="XfDkWS_DAa20V64On1dj-20" value="&lt;div&gt;&lt;font style=&quot;font-size: 12px;&quot; face=&quot;Helvetica&quot; color=&quot;#000000&quot;&gt;fn get_modbus_data&amp;lt;&#39;a&amp;gt;(&amp;amp;self, bus: &amp;amp;&#39;a Modbus)-&amp;gt;Result&amp;lt;Vec&amp;lt;ModbusMsg&amp;gt;, Box&amp;lt;dyn Error + &#39;a&amp;gt;&amp;gt;;&lt;/font&gt;&lt;/div&gt;&lt;div&gt;    &lt;font style=&quot;font-size: 12px;&quot; face=&quot;Helvetica&quot; color=&quot;#000000&quot;&gt;fn parse_modbus_data(&amp;amp;self, raw_data: Vec&amp;lt;ModbusMsg&amp;gt;)-&amp;gt;Vec&amp;lt;JsonValue&amp;gt;;&lt;/font&gt;&lt;/div&gt;" style="text;strokeColor=none;fillColor=none;align=left;verticalAlign=middle;spacingLeft=4;spacingRight=4;overflow=hidden;points=[[0,0.5],[1,0.5]];portConstraint=eastwest;rotatable=0;whiteSpace=wrap;html=1;" vertex="1" parent="XfDkWS_DAa20V64On1dj-19">
          <mxGeometry y="30" width="560" height="50" as="geometry" />
        </mxCell>
        <mxCell id="XfDkWS_DAa20V64On1dj-28" value="&lt;div style=&quot;font-family: &amp;quot;Droid Sans Mono&amp;quot;, &amp;quot;monospace&amp;quot;, monospace; font-weight: normal; font-size: 16px; line-height: 22px;&quot;&gt;&lt;div&gt;&lt;font style=&quot;font-size: 12px;&quot; face=&quot;Helvetica&quot; color=&quot;#030303&quot;&gt;&lt;b&gt;trait JsonCreation : RequestObject&lt;/b&gt;&lt;/font&gt;&lt;/div&gt;&lt;/div&gt;" style="swimlane;fontStyle=0;childLayout=stackLayout;horizontal=1;startSize=30;horizontalStack=0;resizeParent=1;resizeParentMax=0;resizeLast=0;collapsible=1;marginBottom=0;whiteSpace=wrap;html=1;" vertex="1" parent="WIyWlLk6GJQsqaUBKTNV-1">
          <mxGeometry x="521" y="490" width="240" height="60" as="geometry" />
        </mxCell>
        <mxCell id="XfDkWS_DAa20V64On1dj-29" value="&lt;div style=&quot;color: rgb(212, 212, 212); font-family: &amp;quot;Droid Sans Mono&amp;quot;, &amp;quot;monospace&amp;quot;, monospace; font-weight: normal; font-size: 16px; line-height: 22px;&quot;&gt;&lt;div style=&quot;font-size: 12px;&quot;&gt;&lt;font style=&quot;font-size: 12px;&quot; face=&quot;Helvetica&quot; color=&quot;#000000&quot;&gt;fn build_json()-&amp;gt;JsonValue;&lt;/font&gt;&lt;/div&gt;&lt;/div&gt;" style="text;strokeColor=none;fillColor=none;align=left;verticalAlign=middle;spacingLeft=4;spacingRight=4;overflow=hidden;points=[[0,0.5],[1,0.5]];portConstraint=eastwest;rotatable=0;whiteSpace=wrap;html=1;" vertex="1" parent="XfDkWS_DAa20V64On1dj-28">
          <mxGeometry y="30" width="240" height="30" as="geometry" />
        </mxCell>
        <mxCell id="XfDkWS_DAa20V64On1dj-55" style="edgeStyle=orthogonalEdgeStyle;rounded=0;orthogonalLoop=1;jettySize=auto;html=1;exitX=0;exitY=0.5;exitDx=0;exitDy=0;entryX=0.5;entryY=0;entryDx=0;entryDy=0;dashed=1;strokeWidth=2;endArrow=block;endFill=0;" edge="1" parent="WIyWlLk6GJQsqaUBKTNV-1" source="XfDkWS_DAa20V64On1dj-68" target="XfDkWS_DAa20V64On1dj-12">
          <mxGeometry relative="1" as="geometry">
            <mxPoint x="511" y="180" as="sourcePoint" />
          </mxGeometry>
        </mxCell>
        <mxCell id="XfDkWS_DAa20V64On1dj-56" style="edgeStyle=orthogonalEdgeStyle;rounded=0;orthogonalLoop=1;jettySize=auto;html=1;endArrow=blockThin;endFill=0;dashed=1;strokeWidth=2;exitX=0;exitY=0.5;exitDx=0;exitDy=0;" edge="1" parent="WIyWlLk6GJQsqaUBKTNV-1" source="XfDkWS_DAa20V64On1dj-64" target="XfDkWS_DAa20V64On1dj-12">
          <mxGeometry relative="1" as="geometry">
            <mxPoint x="511" y="50.00000000000023" as="sourcePoint" />
          </mxGeometry>
        </mxCell>
        <mxCell id="XfDkWS_DAa20V64On1dj-57" style="edgeStyle=orthogonalEdgeStyle;rounded=0;orthogonalLoop=1;jettySize=auto;html=1;exitX=0;exitY=0.5;exitDx=0;exitDy=0;dashed=1;strokeWidth=2;endArrow=block;endFill=0;" edge="1" parent="WIyWlLk6GJQsqaUBKTNV-1" source="XfDkWS_DAa20V64On1dj-60" target="XfDkWS_DAa20V64On1dj-12">
          <mxGeometry relative="1" as="geometry">
            <mxPoint x="511" y="-74.99999999999977" as="sourcePoint" />
          </mxGeometry>
        </mxCell>
        <mxCell id="XfDkWS_DAa20V64On1dj-59" value="&lt;b&gt;pub struct BatteryInfo&lt;/b&gt;" style="swimlane;fontStyle=1;align=center;verticalAlign=top;childLayout=stackLayout;horizontal=1;startSize=26;horizontalStack=0;resizeParent=1;resizeParentMax=0;resizeLast=0;collapsible=1;marginBottom=0;whiteSpace=wrap;html=1;" vertex="1" collapsed="1" parent="WIyWlLk6GJQsqaUBKTNV-1">
          <mxGeometry x="491" y="80" width="170" height="30" as="geometry">
            <mxRectangle x="100" y="120" width="370" height="200" as="alternateBounds" />
          </mxGeometry>
        </mxCell>
        <mxCell id="XfDkWS_DAa20V64On1dj-60" value="&lt;div&gt;json: JsonValue&lt;/div&gt;&lt;div&gt;modbus_requests: Vec&amp;lt;ModbusMsg&amp;gt;&lt;/div&gt;&lt;div&gt;publish_topic: &amp;amp;&#39;static str&lt;/div&gt;qos: i32" style="text;strokeColor=none;fillColor=none;align=left;verticalAlign=top;spacingLeft=4;spacingRight=4;overflow=hidden;rotatable=0;points=[[0,0.5],[1,0.5]];portConstraint=eastwest;whiteSpace=wrap;html=1;" vertex="1" parent="XfDkWS_DAa20V64On1dj-59">
          <mxGeometry y="26" width="370" height="64" as="geometry" />
        </mxCell>
        <mxCell id="XfDkWS_DAa20V64On1dj-61" value="" style="line;strokeWidth=1;fillColor=none;align=left;verticalAlign=middle;spacingTop=-1;spacingLeft=3;spacingRight=3;rotatable=0;labelPosition=right;points=[];portConstraint=eastwest;strokeColor=inherit;" vertex="1" parent="XfDkWS_DAa20V64On1dj-59">
          <mxGeometry y="90" width="370" height="8" as="geometry" />
        </mxCell>
        <mxCell id="XfDkWS_DAa20V64On1dj-62" value="&lt;div&gt;pub fn new()-&amp;gt;Self;&lt;/div&gt;&lt;div&gt;fn json(&amp;amp;self)-&amp;gt;&amp;amp;JsonValue;&lt;/div&gt;&lt;div&gt;fn json_mut(&amp;amp;self)-&amp;gt;&amp;amp;mut JsonValue;&lt;/div&gt;&lt;div&gt;fn requests_list(&amp;amp;self)-&amp;gt;&amp;amp;Vec&amp;lt;ModbusMsg&amp;gt;&lt;/div&gt;&lt;div&gt;fn build_request_list()-&amp;gt;Vec&amp;lt;ModbusMsg&amp;gt;;&lt;/div&gt;&lt;div&gt;fn decode(msg: ModbusMsg, i: usize)-&amp;gt;Option&amp;lt;JsonValue&amp;gt;&lt;br&gt;&lt;/div&gt;" style="text;strokeColor=none;fillColor=none;align=left;verticalAlign=top;spacingLeft=4;spacingRight=4;overflow=hidden;rotatable=0;points=[[0,0.5],[1,0.5]];portConstraint=eastwest;whiteSpace=wrap;html=1;" vertex="1" parent="XfDkWS_DAa20V64On1dj-59">
          <mxGeometry y="98" width="370" height="102" as="geometry" />
        </mxCell>
        <mxCell id="XfDkWS_DAa20V64On1dj-63" value="&lt;b&gt;pub struct UpsInfo&lt;/b&gt;" style="swimlane;fontStyle=1;align=center;verticalAlign=top;childLayout=stackLayout;horizontal=1;startSize=26;horizontalStack=0;resizeParent=1;resizeParentMax=0;resizeLast=0;collapsible=1;marginBottom=0;whiteSpace=wrap;html=1;" vertex="1" collapsed="1" parent="WIyWlLk6GJQsqaUBKTNV-1">
          <mxGeometry x="491" y="140" width="170" height="30" as="geometry">
            <mxRectangle x="350" y="-190" width="370" height="250" as="alternateBounds" />
          </mxGeometry>
        </mxCell>
        <mxCell id="XfDkWS_DAa20V64On1dj-64" value="&lt;div&gt;json: JsonValue&lt;/div&gt;&lt;div&gt;modbus_requests: Vec&amp;lt;ModbusMsg&amp;gt;&lt;/div&gt;&lt;div&gt;ups_serial_number: String&lt;/div&gt;&lt;div&gt;publish_topic: &amp;amp;&#39;static str&lt;/div&gt;qos: i32" style="text;strokeColor=none;fillColor=none;align=left;verticalAlign=top;spacingLeft=4;spacingRight=4;overflow=hidden;rotatable=0;points=[[0,0.5],[1,0.5]];portConstraint=eastwest;whiteSpace=wrap;html=1;" vertex="1" parent="XfDkWS_DAa20V64On1dj-63">
          <mxGeometry y="26" width="370" height="84" as="geometry" />
        </mxCell>
        <mxCell id="XfDkWS_DAa20V64On1dj-65" value="" style="line;strokeWidth=1;fillColor=none;align=left;verticalAlign=middle;spacingTop=-1;spacingLeft=3;spacingRight=3;rotatable=0;labelPosition=right;points=[];portConstraint=eastwest;strokeColor=inherit;" vertex="1" parent="XfDkWS_DAa20V64On1dj-63">
          <mxGeometry y="110" width="370" height="8" as="geometry" />
        </mxCell>
        <mxCell id="XfDkWS_DAa20V64On1dj-66" value="&lt;div&gt;pub fn new()-&amp;gt;Self;&lt;/div&gt;&lt;div&gt;fn json(&amp;amp;self)-&amp;gt;&amp;amp;JsonValue;&lt;/div&gt;&lt;div&gt;fn json_mut(&amp;amp;self)-&amp;gt;&amp;amp;mut JsonValue;&lt;/div&gt;&lt;div&gt;fn requests_list(&amp;amp;self)-&amp;gt;&amp;amp;Vec&amp;lt;ModbusMsg&amp;gt;&lt;/div&gt;&lt;div&gt;fn build_request_list()-&amp;gt;Vec&amp;lt;ModbusMsg&amp;gt;;&lt;/div&gt;&lt;div&gt;fn ups_serial_number(&amp;amp;self)-&amp;gt;&amp;amp;str;&lt;br&gt;&lt;/div&gt;&lt;div&gt;fn get_module_name(&amp;amp;self, msg: &amp;amp;ModbusMsg)-&amp;gt;Option&amp;lt;String&amp;gt;;&lt;/div&gt;&lt;div&gt;fn get_fw_version(&amp;amp;self, msg: &amp;amp;ModbusMsg)-&amp;gt;Option&amp;lt;String&amp;gt;;&lt;br&gt;&lt;/div&gt;" style="text;strokeColor=none;fillColor=none;align=left;verticalAlign=top;spacingLeft=4;spacingRight=4;overflow=hidden;rotatable=0;points=[[0,0.5],[1,0.5]];portConstraint=eastwest;whiteSpace=wrap;html=1;" vertex="1" parent="XfDkWS_DAa20V64On1dj-63">
          <mxGeometry y="118" width="370" height="132" as="geometry" />
        </mxCell>
        <mxCell id="XfDkWS_DAa20V64On1dj-67" value="pub struct batteryEvent" style="swimlane;fontStyle=1;align=center;verticalAlign=top;childLayout=stackLayout;horizontal=1;startSize=26;horizontalStack=0;resizeParent=1;resizeParentMax=0;resizeLast=0;collapsible=1;marginBottom=0;whiteSpace=wrap;html=1;" vertex="1" collapsed="1" parent="WIyWlLk6GJQsqaUBKTNV-1">
          <mxGeometry x="491" y="200" width="170" height="30" as="geometry">
            <mxRectangle x="350" y="90" width="370" height="230" as="alternateBounds" />
          </mxGeometry>
        </mxCell>
        <mxCell id="XfDkWS_DAa20V64On1dj-68" value="&lt;div&gt;json: JsonValue&lt;div&gt;msg: ModbusMsg&lt;/div&gt;&lt;div&gt;event_time: String&lt;/div&gt;&lt;div&gt;publish_topic: &amp;amp;&#39;static str&lt;/div&gt;qos: i32&lt;/div&gt;" style="text;strokeColor=none;fillColor=none;align=left;verticalAlign=top;spacingLeft=4;spacingRight=4;overflow=hidden;rotatable=0;points=[[0,0.5],[1,0.5]];portConstraint=eastwest;whiteSpace=wrap;html=1;" vertex="1" parent="XfDkWS_DAa20V64On1dj-67">
          <mxGeometry y="26" width="370" height="84" as="geometry" />
        </mxCell>
        <mxCell id="XfDkWS_DAa20V64On1dj-69" value="" style="line;strokeWidth=1;fillColor=none;align=left;verticalAlign=middle;spacingTop=-1;spacingLeft=3;spacingRight=3;rotatable=0;labelPosition=right;points=[];portConstraint=eastwest;strokeColor=inherit;" vertex="1" parent="XfDkWS_DAa20V64On1dj-67">
          <mxGeometry y="110" width="370" height="8" as="geometry" />
        </mxCell>
        <mxCell id="XfDkWS_DAa20V64On1dj-70" value="&lt;div&gt;pub fn new()-&amp;gt;Self;&lt;/div&gt;&lt;div&gt;fn json(&amp;amp;self)-&amp;gt;&amp;amp;JsonValue;&lt;/div&gt;&lt;div&gt;fn json_mut(&amp;amp;self)-&amp;gt;&amp;amp;mut JsonValue;&lt;/div&gt;&lt;div&gt;fn msg(&amp;amp;self)-&amp;gt;&amp;amp;ModbusMsg;&lt;/div&gt;&lt;div&gt;fn event_code(&amp;amp;self)-&amp;gt;Option&amp;lt;u16&amp;gt;;&lt;/div&gt;&lt;div&gt;fn event_time(&amp;amp;self)-&amp;gt;&amp;amp;str;&lt;/div&gt;&lt;div&gt;fn decode(&amp;amp;self, event: &amp;amp;ModbusMsg)-&amp;gt;Result&amp;lt;i32, String&amp;gt;&lt;br&gt;&lt;/div&gt;" style="text;strokeColor=none;fillColor=none;align=left;verticalAlign=top;spacingLeft=4;spacingRight=4;overflow=hidden;rotatable=0;points=[[0,0.5],[1,0.5]];portConstraint=eastwest;whiteSpace=wrap;html=1;" vertex="1" parent="XfDkWS_DAa20V64On1dj-67">
          <mxGeometry y="118" width="370" height="112" as="geometry" />
        </mxCell>
        <mxCell id="XfDkWS_DAa20V64On1dj-80" style="edgeStyle=orthogonalEdgeStyle;rounded=0;orthogonalLoop=1;jettySize=auto;html=1;exitX=1;exitY=0.5;exitDx=0;exitDy=0;entryX=0;entryY=0.5;entryDx=0;entryDy=0;strokeColor=none;endArrow=diamondThin;endFill=0;strokeWidth=2;" edge="1" parent="WIyWlLk6GJQsqaUBKTNV-1" source="XfDkWS_DAa20V64On1dj-71" target="XfDkWS_DAa20V64On1dj-75">
          <mxGeometry relative="1" as="geometry" />
        </mxCell>
        <mxCell id="XfDkWS_DAa20V64On1dj-81" style="edgeStyle=orthogonalEdgeStyle;rounded=0;orthogonalLoop=1;jettySize=auto;html=1;exitX=0;exitY=0.5;exitDx=0;exitDy=0;entryX=0;entryY=0.25;entryDx=0;entryDy=0;endArrow=diamondThin;endFill=0;strokeWidth=2;" edge="1" parent="WIyWlLk6GJQsqaUBKTNV-1" source="XfDkWS_DAa20V64On1dj-72" target="XfDkWS_DAa20V64On1dj-75">
          <mxGeometry relative="1" as="geometry" />
        </mxCell>
        <mxCell id="XfDkWS_DAa20V64On1dj-71" value="&lt;div style=&quot;color: rgb(212, 212, 212); font-family: &amp;quot;Droid Sans Mono&amp;quot;, &amp;quot;monospace&amp;quot;, monospace; font-weight: normal; font-size: 15px; line-height: 22px;&quot;&gt;&lt;div style=&quot;font-size: 12px;&quot;&gt;&lt;b&gt;&lt;font style=&quot;font-size: 12px;&quot; face=&quot;Helvetica&quot; color=&quot;#0f0f0f&quot;&gt;pub struct Request(Box&amp;lt;dyn RequestObject&amp;gt;)&lt;/font&gt;&lt;/b&gt;&lt;/div&gt;&lt;/div&gt;" style="swimlane;fontStyle=1;align=center;verticalAlign=middle;childLayout=stackLayout;horizontal=1;startSize=26;horizontalStack=0;resizeParent=1;resizeParentMax=0;resizeLast=0;collapsible=1;marginBottom=0;whiteSpace=wrap;html=1;" vertex="1" parent="WIyWlLk6GJQsqaUBKTNV-1">
          <mxGeometry x="-39" y="75" width="340" height="110" as="geometry">
            <mxRectangle x="-430" y="120" width="170" height="30" as="alternateBounds" />
          </mxGeometry>
        </mxCell>
        <mxCell id="XfDkWS_DAa20V64On1dj-72" value="&lt;span&gt;&lt;font style=&quot;font-size: 12px;&quot; face=&quot;Helvetica&quot; color=&quot;#0f0f0f&quot;&gt;0: Box&amp;lt;dyn RequestObject&amp;gt;&lt;/font&gt;&lt;/span&gt;" style="text;strokeColor=none;fillColor=none;align=left;verticalAlign=top;spacingLeft=4;spacingRight=4;overflow=hidden;rotatable=0;points=[[0,0.5],[1,0.5]];portConstraint=eastwest;whiteSpace=wrap;html=1;fontStyle=0" vertex="1" parent="XfDkWS_DAa20V64On1dj-71">
          <mxGeometry y="26" width="340" height="24" as="geometry" />
        </mxCell>
        <mxCell id="XfDkWS_DAa20V64On1dj-73" value="" style="line;strokeWidth=1;fillColor=none;align=left;verticalAlign=middle;spacingTop=-1;spacingLeft=3;spacingRight=3;rotatable=0;labelPosition=right;points=[];portConstraint=eastwest;strokeColor=inherit;" vertex="1" parent="XfDkWS_DAa20V64On1dj-71">
          <mxGeometry y="50" width="340" height="8" as="geometry" />
        </mxCell>
        <mxCell id="XfDkWS_DAa20V64On1dj-74" value="&lt;div style=&quot;color: rgb(212, 212, 212); font-weight: normal; line-height: 103%;&quot;&gt;&lt;div style=&quot;line-height: 103%;&quot;&gt;&lt;font color=&quot;#030303&quot;&gt;pub fn ups_info()-&amp;gt;Self;&lt;/font&gt;&lt;/div&gt;&lt;div style=&quot;line-height: 103%;&quot;&gt;    &lt;font color=&quot;#030303&quot;&gt;pub fn battery_info()-&amp;gt;Self;&lt;/font&gt;&lt;/div&gt;&lt;div style=&quot;line-height: 103%;&quot;&gt;    &lt;font color=&quot;#030303&quot;&gt;pub fn battery_event(event: ModbusMsg)-&amp;gt;Self;&lt;/font&gt;&lt;/div&gt;&lt;/div&gt;" style="text;strokeColor=none;fillColor=none;align=left;verticalAlign=top;spacingLeft=4;spacingRight=4;overflow=hidden;rotatable=0;points=[[0,0.5],[1,0.5]];portConstraint=eastwest;whiteSpace=wrap;html=1;" vertex="1" parent="XfDkWS_DAa20V64On1dj-71">
          <mxGeometry y="58" width="340" height="52" as="geometry" />
        </mxCell>
        <mxCell id="XfDkWS_DAa20V64On1dj-75" value="&lt;div style=&quot;color: rgb(212, 212, 212); font-family: &amp;quot;Droid Sans Mono&amp;quot;, &amp;quot;monospace&amp;quot;, monospace; font-weight: normal; font-size: 15px; line-height: 22px;&quot;&gt;&lt;div style=&quot;font-size: 12px;&quot;&gt;&lt;b&gt;&lt;font style=&quot;font-size: 12px;&quot; face=&quot;Helvetica&quot; color=&quot;#0f0f0f&quot;&gt;pub struct RequestStack(Stack)&lt;br&gt;&lt;/font&gt;&lt;/b&gt;&lt;/div&gt;&lt;/div&gt;" style="swimlane;fontStyle=1;align=center;verticalAlign=middle;childLayout=stackLayout;horizontal=1;startSize=26;horizontalStack=0;resizeParent=1;resizeParentMax=0;resizeLast=0;collapsible=1;marginBottom=0;whiteSpace=wrap;html=1;" vertex="1" parent="WIyWlLk6GJQsqaUBKTNV-1">
          <mxGeometry x="-39" y="-55" width="290" height="100" as="geometry">
            <mxRectangle x="-430" y="-10" width="230" height="30" as="alternateBounds" />
          </mxGeometry>
        </mxCell>
        <mxCell id="XfDkWS_DAa20V64On1dj-76" value="&lt;span&gt;&lt;font style=&quot;font-size: 12px;&quot; face=&quot;Helvetica&quot; color=&quot;#0f0f0f&quot;&gt;0: Stack&lt;/font&gt;&lt;/span&gt;" style="text;strokeColor=none;fillColor=none;align=left;verticalAlign=top;spacingLeft=4;spacingRight=4;overflow=hidden;rotatable=0;points=[[0,0.5],[1,0.5]];portConstraint=eastwest;whiteSpace=wrap;html=1;fontStyle=0" vertex="1" parent="XfDkWS_DAa20V64On1dj-75">
          <mxGeometry y="26" width="290" height="24" as="geometry" />
        </mxCell>
        <mxCell id="XfDkWS_DAa20V64On1dj-77" value="" style="line;strokeWidth=1;fillColor=none;align=left;verticalAlign=middle;spacingTop=-1;spacingLeft=3;spacingRight=3;rotatable=0;labelPosition=right;points=[];portConstraint=eastwest;strokeColor=inherit;" vertex="1" parent="XfDkWS_DAa20V64On1dj-75">
          <mxGeometry y="50" width="290" height="8" as="geometry" />
        </mxCell>
        <mxCell id="XfDkWS_DAa20V64On1dj-78" value="&lt;div&gt;pub fn push(request: Request)-&amp;gt;Result&amp;lt;(), String&amp;gt;;&lt;/div&gt;&lt;div&gt;pub fn pull()-&amp;gt;Result&amp;lt;Request, String&amp;gt;&lt;br&gt;&lt;/div&gt;" style="text;strokeColor=none;fillColor=none;align=left;verticalAlign=top;spacingLeft=4;spacingRight=4;overflow=hidden;rotatable=0;points=[[0,0.5],[1,0.5]];portConstraint=eastwest;whiteSpace=wrap;html=1;" vertex="1" parent="XfDkWS_DAa20V64On1dj-75">
          <mxGeometry y="58" width="290" height="42" as="geometry" />
        </mxCell>
        <mxCell id="XfDkWS_DAa20V64On1dj-82" style="edgeStyle=orthogonalEdgeStyle;rounded=0;orthogonalLoop=1;jettySize=auto;html=1;exitX=1;exitY=0.5;exitDx=0;exitDy=0;entryX=0.25;entryY=0;entryDx=0;entryDy=0;endArrow=block;endFill=0;strokeWidth=2;" edge="1" parent="WIyWlLk6GJQsqaUBKTNV-1" source="XfDkWS_DAa20V64On1dj-72" target="XfDkWS_DAa20V64On1dj-12">
          <mxGeometry relative="1" as="geometry">
            <Array as="points">
              <mxPoint x="319" y="113" />
              <mxPoint x="319" y="118" />
              <mxPoint x="319" y="118" />
            </Array>
          </mxGeometry>
        </mxCell>
        <mxCell id="XfDkWS_DAa20V64On1dj-89" value="struct Stack" style="swimlane;fontStyle=1;align=center;verticalAlign=middle;childLayout=stackLayout;horizontal=1;startSize=26;horizontalStack=0;resizeParent=1;resizeParentMax=0;resizeLast=0;collapsible=1;marginBottom=0;whiteSpace=wrap;html=1;" vertex="1" parent="WIyWlLk6GJQsqaUBKTNV-1">
          <mxGeometry x="311" y="-100" width="270" height="110" as="geometry">
            <mxRectangle x="-70" y="10" width="170" height="30" as="alternateBounds" />
          </mxGeometry>
        </mxCell>
        <mxCell id="XfDkWS_DAa20V64On1dj-90" value="&lt;div&gt;&lt;font color=&quot;#0f0f0f&quot;&gt;status: Sem&lt;/font&gt;&lt;/div&gt;&lt;div&gt;&lt;font color=&quot;#0f0f0f&quot;&gt;data: Mutex&amp;lt;VecDecue&amp;lt;Request&amp;gt;&amp;gt;&lt;br&gt;&lt;/font&gt;&lt;/div&gt;" style="text;strokeColor=none;fillColor=none;align=left;verticalAlign=top;spacingLeft=4;spacingRight=4;overflow=hidden;rotatable=0;points=[[0,0.5],[1,0.5]];portConstraint=eastwest;whiteSpace=wrap;html=1;fontStyle=0" vertex="1" parent="XfDkWS_DAa20V64On1dj-89">
          <mxGeometry y="26" width="270" height="34" as="geometry" />
        </mxCell>
        <mxCell id="XfDkWS_DAa20V64On1dj-91" value="" style="line;strokeWidth=1;fillColor=none;align=left;verticalAlign=middle;spacingTop=-1;spacingLeft=3;spacingRight=3;rotatable=0;labelPosition=right;points=[];portConstraint=eastwest;strokeColor=inherit;" vertex="1" parent="XfDkWS_DAa20V64On1dj-89">
          <mxGeometry y="60" width="270" height="8" as="geometry" />
        </mxCell>
        <mxCell id="XfDkWS_DAa20V64On1dj-92" value="&lt;div&gt;fn status(&amp;amp;self)-&amp;gt;&amp;amp;Sem;&lt;/div&gt;&lt;div&gt;fn data(&amp;amp;self)-&amp;gt;&amp;amp;Mutex&amp;lt;VecDeque&amp;lt;Request&amp;gt;&amp;gt;&lt;br&gt;&lt;/div&gt;" style="text;strokeColor=none;fillColor=none;align=left;verticalAlign=top;spacingLeft=4;spacingRight=4;overflow=hidden;rotatable=0;points=[[0,0.5],[1,0.5]];portConstraint=eastwest;whiteSpace=wrap;html=1;" vertex="1" parent="XfDkWS_DAa20V64On1dj-89">
          <mxGeometry y="68" width="270" height="42" as="geometry" />
        </mxCell>
        <mxCell id="XfDkWS_DAa20V64On1dj-93" style="edgeStyle=orthogonalEdgeStyle;rounded=0;orthogonalLoop=1;jettySize=auto;html=1;exitX=0;exitY=0.5;exitDx=0;exitDy=0;entryX=1;entryY=0.25;entryDx=0;entryDy=0;strokeWidth=2;endArrow=diamondThin;endFill=1;" edge="1" parent="WIyWlLk6GJQsqaUBKTNV-1" source="XfDkWS_DAa20V64On1dj-90" target="XfDkWS_DAa20V64On1dj-75">
          <mxGeometry relative="1" as="geometry">
            <mxPoint x="310.9999999999998" y="-12" as="sourcePoint" />
          </mxGeometry>
        </mxCell>
        <mxCell id="XfDkWS_DAa20V64On1dj-94" value="&lt;div style=&quot;font-family: &amp;quot;Droid Sans Mono&amp;quot;, &amp;quot;monospace&amp;quot;, monospace; font-weight: normal; line-height: 22px;&quot;&gt;&lt;div&gt;&lt;font style=&quot;font-size: 12px;&quot; face=&quot;Helvetica&quot; color=&quot;#030303&quot;&gt;&lt;b&gt;pub trait Map&lt;br&gt;&lt;/b&gt;&lt;/font&gt;&lt;/div&gt;&lt;/div&gt;" style="swimlane;fontStyle=0;childLayout=stackLayout;horizontal=1;startSize=30;horizontalStack=0;resizeParent=1;resizeParentMax=0;resizeLast=0;collapsible=1;marginBottom=0;whiteSpace=wrap;html=1;" vertex="1" parent="WIyWlLk6GJQsqaUBKTNV-1">
          <mxGeometry x="827" y="300" width="110" height="60" as="geometry" />
        </mxCell>
        <mxCell id="XfDkWS_DAa20V64On1dj-95" value="&lt;div style=&quot;color: rgb(212, 212, 212); font-family: &amp;quot;Droid Sans Mono&amp;quot;, &amp;quot;monospace&amp;quot;, monospace; font-weight: normal; font-size: 16px; line-height: 22px;&quot;&gt;&lt;div style=&quot;font-size: 12px;&quot;&gt;&lt;font face=&quot;Helvetica&quot; color=&quot;#000000&quot;&gt;fn map(self)-&amp;gt;i32&lt;br&gt;&lt;/font&gt;&lt;/div&gt;&lt;/div&gt;" style="text;strokeColor=none;fillColor=none;align=left;verticalAlign=middle;spacingLeft=4;spacingRight=4;overflow=hidden;points=[[0,0.5],[1,0.5]];portConstraint=eastwest;rotatable=0;whiteSpace=wrap;html=1;" vertex="1" parent="XfDkWS_DAa20V64On1dj-94">
          <mxGeometry y="30" width="110" height="30" as="geometry" />
        </mxCell>
        <mxCell id="XfDkWS_DAa20V64On1dj-100" style="edgeStyle=orthogonalEdgeStyle;rounded=0;orthogonalLoop=1;jettySize=auto;html=1;entryX=0.5;entryY=0;entryDx=0;entryDy=0;endArrow=block;endFill=0;dashed=1;strokeWidth=2;" edge="1" parent="WIyWlLk6GJQsqaUBKTNV-1" source="XfDkWS_DAa20V64On1dj-96" target="XfDkWS_DAa20V64On1dj-94">
          <mxGeometry relative="1" as="geometry" />
        </mxCell>
        <mxCell id="XfDkWS_DAa20V64On1dj-96" value="&lt;div style=&quot;color: rgb(212, 212, 212); font-family: &amp;quot;Droid Sans Mono&amp;quot;, &amp;quot;monospace&amp;quot;, monospace; font-weight: normal; font-size: 15px; line-height: 22px;&quot;&gt;&lt;div style=&quot;font-size: 12px;&quot;&gt;&lt;b&gt;&lt;font style=&quot;font-size: 12px;&quot; face=&quot;Helvetica&quot; color=&quot;#0f0f0f&quot;&gt;u16&lt;br&gt;&lt;/font&gt;&lt;/b&gt;&lt;/div&gt;&lt;/div&gt;" style="swimlane;fontStyle=1;align=center;verticalAlign=middle;childLayout=stackLayout;horizontal=1;startSize=26;horizontalStack=0;resizeParent=1;resizeParentMax=0;resizeLast=0;collapsible=1;marginBottom=0;whiteSpace=wrap;html=1;" vertex="1" parent="WIyWlLk6GJQsqaUBKTNV-1">
          <mxGeometry x="852" y="200" width="60" height="34" as="geometry">
            <mxRectangle x="-430" y="-10" width="230" height="30" as="alternateBounds" />
          </mxGeometry>
        </mxCell>
        <mxCell id="XfDkWS_DAa20V64On1dj-98" value="" style="line;strokeWidth=1;fillColor=none;align=left;verticalAlign=middle;spacingTop=-1;spacingLeft=3;spacingRight=3;rotatable=0;labelPosition=right;points=[];portConstraint=eastwest;strokeColor=inherit;" vertex="1" parent="XfDkWS_DAa20V64On1dj-96">
          <mxGeometry y="26" width="60" height="8" as="geometry" />
        </mxCell>
        <mxCell id="XfDkWS_DAa20V64On1dj-101" value="pub struct ModbusMsg" style="swimlane;fontStyle=1;align=center;verticalAlign=middle;childLayout=stackLayout;horizontal=1;startSize=26;horizontalStack=0;resizeParent=1;resizeParentMax=0;resizeLast=0;collapsible=1;marginBottom=0;whiteSpace=wrap;html=1;" vertex="1" parent="WIyWlLk6GJQsqaUBKTNV-1">
          <mxGeometry x="997" y="-100" width="350" height="166" as="geometry">
            <mxRectangle x="-70" y="10" width="170" height="30" as="alternateBounds" />
          </mxGeometry>
        </mxCell>
        <mxCell id="XfDkWS_DAa20V64On1dj-102" value="&lt;div&gt;&lt;font color=&quot;#0f0f0f&quot;&gt;msg: Vec&amp;lt;u8&amp;gt;&lt;/font&gt;&lt;/div&gt;&lt;div&gt;&lt;font color=&quot;#0f0f0f&quot;&gt;len: usize&lt;br&gt;&lt;/font&gt;&lt;/div&gt;" style="text;strokeColor=none;fillColor=none;align=left;verticalAlign=top;spacingLeft=4;spacingRight=4;overflow=hidden;rotatable=0;points=[[0,0.5],[1,0.5]];portConstraint=eastwest;whiteSpace=wrap;html=1;fontStyle=0" vertex="1" parent="XfDkWS_DAa20V64On1dj-101">
          <mxGeometry y="26" width="350" height="34" as="geometry" />
        </mxCell>
        <mxCell id="XfDkWS_DAa20V64On1dj-103" value="" style="line;strokeWidth=1;fillColor=none;align=left;verticalAlign=middle;spacingTop=-1;spacingLeft=3;spacingRight=3;rotatable=0;labelPosition=right;points=[];portConstraint=eastwest;strokeColor=inherit;" vertex="1" parent="XfDkWS_DAa20V64On1dj-101">
          <mxGeometry y="60" width="350" height="8" as="geometry" />
        </mxCell>
        <mxCell id="XfDkWS_DAa20V64On1dj-104" value="&lt;div&gt;pub fn from&amp;lt;T: IntoMsg + ?Sized&amp;gt;(data: &amp;amp;T, len: usize)-&amp;gt;Self&lt;br&gt;&lt;/div&gt;&lt;div&gt;pub fn data(&amp;amp;self)-&amp;gt;&amp;amp;[u8]&lt;/div&gt;&lt;div&gt;pub fn len(&amp;amp;self)-&amp;gt;&amp;amp;usize&lt;/div&gt;&lt;div&gt;pub fn registers_value(&amp;amp;self)-&amp;gt;Option&amp;lt;i32&amp;gt;&lt;/div&gt;&lt;div&gt;pub fn registers_value_percent(&amp;amp;self)-&amp;gt;Option&amp;lt;i32&amp;gt;&lt;/div&gt;&lt;div&gt;pub fn is_event(&amp;amp;self)-&amp;gt;bool&lt;br&gt;&lt;/div&gt;&lt;div&gt;&lt;br&gt;&lt;/div&gt;" style="text;strokeColor=none;fillColor=none;align=left;verticalAlign=top;spacingLeft=4;spacingRight=4;overflow=hidden;rotatable=0;points=[[0,0.5],[1,0.5]];portConstraint=eastwest;whiteSpace=wrap;html=1;" vertex="1" parent="XfDkWS_DAa20V64On1dj-101">
          <mxGeometry y="68" width="350" height="98" as="geometry" />
        </mxCell>
        <mxCell id="XfDkWS_DAa20V64On1dj-105" value="&lt;b&gt;pub trait IntoMsg&lt;br&gt;&lt;/b&gt;" style="swimlane;fontStyle=0;childLayout=stackLayout;horizontal=1;startSize=30;horizontalStack=0;resizeParent=1;resizeParentMax=0;resizeLast=0;collapsible=1;marginBottom=0;whiteSpace=wrap;html=1;" vertex="1" parent="WIyWlLk6GJQsqaUBKTNV-1">
          <mxGeometry x="997" y="100" width="300" height="70" as="geometry" />
        </mxCell>
        <mxCell id="XfDkWS_DAa20V64On1dj-106" value="&lt;div&gt;fn into_modbus_msg(&amp;amp;self, len: usize)-&amp;gt;ModbusMsg&lt;/div&gt;&lt;div&gt;fn crc(data: &amp;amp;[u8])-&amp;gt;u16&lt;br&gt;&lt;/div&gt;" style="text;strokeColor=none;fillColor=none;align=left;verticalAlign=middle;spacingLeft=4;spacingRight=4;overflow=hidden;points=[[0,0.5],[1,0.5]];portConstraint=eastwest;rotatable=0;whiteSpace=wrap;html=1;" vertex="1" parent="XfDkWS_DAa20V64On1dj-105">
          <mxGeometry y="30" width="300" height="40" as="geometry" />
        </mxCell>
        <mxCell id="XfDkWS_DAa20V64On1dj-112" style="edgeStyle=orthogonalEdgeStyle;rounded=0;orthogonalLoop=1;jettySize=auto;html=1;exitX=1;exitY=0.5;exitDx=0;exitDy=0;entryX=0;entryY=0.25;entryDx=0;entryDy=0;dashed=1;strokeWidth=2;endArrow=block;endFill=0;" edge="1" parent="WIyWlLk6GJQsqaUBKTNV-1" source="XfDkWS_DAa20V64On1dj-107" target="XfDkWS_DAa20V64On1dj-105">
          <mxGeometry relative="1" as="geometry">
            <mxPoint x="957" y="130" as="targetPoint" />
            <Array as="points">
              <mxPoint x="957" y="167" />
              <mxPoint x="957" y="118" />
              <mxPoint x="967" y="118" />
            </Array>
          </mxGeometry>
        </mxCell>
        <mxCell id="XfDkWS_DAa20V64On1dj-107" value="&lt;div style=&quot;color: rgb(212, 212, 212); font-family: &amp;quot;Droid Sans Mono&amp;quot;, &amp;quot;monospace&amp;quot;, monospace; font-weight: normal; font-size: 15px; line-height: 22px;&quot;&gt;&lt;div style=&quot;font-size: 12px;&quot;&gt;&lt;b&gt;&lt;font style=&quot;font-size: 12px;&quot; face=&quot;Helvetica&quot; color=&quot;#0f0f0f&quot;&gt;[u16]&lt;br&gt;&lt;/font&gt;&lt;/b&gt;&lt;/div&gt;&lt;/div&gt;" style="swimlane;fontStyle=1;align=center;verticalAlign=middle;childLayout=stackLayout;horizontal=1;startSize=26;horizontalStack=0;resizeParent=1;resizeParentMax=0;resizeLast=0;collapsible=1;marginBottom=0;whiteSpace=wrap;html=1;" vertex="1" parent="WIyWlLk6GJQsqaUBKTNV-1">
          <mxGeometry x="852" y="150" width="60" height="34" as="geometry">
            <mxRectangle x="-430" y="-10" width="230" height="30" as="alternateBounds" />
          </mxGeometry>
        </mxCell>
        <mxCell id="XfDkWS_DAa20V64On1dj-108" value="" style="line;strokeWidth=1;fillColor=none;align=left;verticalAlign=middle;spacingTop=-1;spacingLeft=3;spacingRight=3;rotatable=0;labelPosition=right;points=[];portConstraint=eastwest;strokeColor=inherit;" vertex="1" parent="XfDkWS_DAa20V64On1dj-107">
          <mxGeometry y="26" width="60" height="8" as="geometry" />
        </mxCell>
        <mxCell id="XfDkWS_DAa20V64On1dj-111" style="edgeStyle=orthogonalEdgeStyle;rounded=0;orthogonalLoop=1;jettySize=auto;html=1;exitX=1;exitY=0.5;exitDx=0;exitDy=0;entryX=0;entryY=0.25;entryDx=0;entryDy=0;dashed=1;strokeWidth=2;endArrow=block;endFill=0;" edge="1" parent="WIyWlLk6GJQsqaUBKTNV-1" source="XfDkWS_DAa20V64On1dj-109" target="XfDkWS_DAa20V64On1dj-105">
          <mxGeometry relative="1" as="geometry" />
        </mxCell>
        <mxCell id="XfDkWS_DAa20V64On1dj-109" value="[u8]" style="swimlane;fontStyle=1;align=center;verticalAlign=middle;childLayout=stackLayout;horizontal=1;startSize=26;horizontalStack=0;resizeParent=1;resizeParentMax=0;resizeLast=0;collapsible=1;marginBottom=0;whiteSpace=wrap;html=1;" vertex="1" parent="WIyWlLk6GJQsqaUBKTNV-1">
          <mxGeometry x="852" y="100" width="60" height="34" as="geometry">
            <mxRectangle x="-430" y="-10" width="230" height="30" as="alternateBounds" />
          </mxGeometry>
        </mxCell>
        <mxCell id="XfDkWS_DAa20V64On1dj-110" value="" style="line;strokeWidth=1;fillColor=none;align=left;verticalAlign=middle;spacingTop=-1;spacingLeft=3;spacingRight=3;rotatable=0;labelPosition=right;points=[];portConstraint=eastwest;strokeColor=inherit;" vertex="1" parent="XfDkWS_DAa20V64On1dj-109">
          <mxGeometry y="26" width="60" height="8" as="geometry" />
        </mxCell>
        <mxCell id="XfDkWS_DAa20V64On1dj-132" style="edgeStyle=orthogonalEdgeStyle;rounded=0;orthogonalLoop=1;jettySize=auto;html=1;entryX=1;entryY=0.5;entryDx=0;entryDy=0;strokeWidth=2;endArrow=diamondThin;endFill=1;" edge="1" parent="WIyWlLk6GJQsqaUBKTNV-1" source="XfDkWS_DAa20V64On1dj-113" target="XfDkWS_DAa20V64On1dj-118">
          <mxGeometry relative="1" as="geometry" />
        </mxCell>
        <mxCell id="XfDkWS_DAa20V64On1dj-113" value="pub struct ModbusPort(Arc&amp;lt;Mutex&amp;lt;SystemPort&amp;gt;&amp;gt;)" style="swimlane;fontStyle=1;align=center;verticalAlign=middle;childLayout=stackLayout;horizontal=1;startSize=26;horizontalStack=0;resizeParent=1;resizeParentMax=0;resizeLast=0;collapsible=1;marginBottom=0;whiteSpace=wrap;html=1;" vertex="1" parent="WIyWlLk6GJQsqaUBKTNV-1">
          <mxGeometry x="1577" y="-430" width="320" height="128" as="geometry">
            <mxRectangle x="-70" y="10" width="170" height="30" as="alternateBounds" />
          </mxGeometry>
        </mxCell>
        <mxCell id="XfDkWS_DAa20V64On1dj-114" value="&lt;div&gt;&lt;font color=&quot;#0f0f0f&quot;&gt;0: &lt;/font&gt;Arc&amp;lt;Mutex&amp;lt;SystemPort&amp;gt;&amp;gt;&lt;/div&gt;" style="text;strokeColor=none;fillColor=none;align=left;verticalAlign=top;spacingLeft=4;spacingRight=4;overflow=hidden;rotatable=0;points=[[0,0.5],[1,0.5]];portConstraint=eastwest;whiteSpace=wrap;html=1;fontStyle=0" vertex="1" parent="XfDkWS_DAa20V64On1dj-113">
          <mxGeometry y="26" width="320" height="24" as="geometry" />
        </mxCell>
        <mxCell id="XfDkWS_DAa20V64On1dj-115" value="" style="line;strokeWidth=1;fillColor=none;align=left;verticalAlign=middle;spacingTop=-1;spacingLeft=3;spacingRight=3;rotatable=0;labelPosition=right;points=[];portConstraint=eastwest;strokeColor=inherit;" vertex="1" parent="XfDkWS_DAa20V64On1dj-113">
          <mxGeometry y="50" width="320" height="8" as="geometry" />
        </mxCell>
        <mxCell id="XfDkWS_DAa20V64On1dj-116" value="&lt;div&gt;fn open(port: &amp;amp;str)-&amp;gt;Result&amp;lt;Self, io::Error&amp;gt;&lt;/div&gt;&lt;div&gt;fn config(self)-&amp;gt;Result&amp;lt;Self, io::Error&amp;gt;&lt;/div&gt;&lt;div&gt;fn timeout(self, timeout: u64)-&amp;gt;Result&amp;lt;Self, serial::Error&amp;gt;&lt;/div&gt;&lt;div&gt;fn clone(&amp;amp;self)-&amp;gt;Self&lt;br&gt;&lt;/div&gt;&lt;div&gt;&lt;br&gt;&lt;/div&gt;" style="text;strokeColor=none;fillColor=none;align=left;verticalAlign=top;spacingLeft=4;spacingRight=4;overflow=hidden;rotatable=0;points=[[0,0.5],[1,0.5]];portConstraint=eastwest;whiteSpace=wrap;html=1;" vertex="1" parent="XfDkWS_DAa20V64On1dj-113">
          <mxGeometry y="58" width="320" height="70" as="geometry" />
        </mxCell>
        <mxCell id="XfDkWS_DAa20V64On1dj-117" value="pub struct Modbus" style="swimlane;fontStyle=1;align=center;verticalAlign=middle;childLayout=stackLayout;horizontal=1;startSize=26;horizontalStack=0;resizeParent=1;resizeParentMax=0;resizeLast=0;collapsible=1;marginBottom=0;whiteSpace=wrap;html=1;" vertex="1" parent="WIyWlLk6GJQsqaUBKTNV-1">
          <mxGeometry x="997" y="-350" width="500" height="210" as="geometry">
            <mxRectangle x="-70" y="10" width="170" height="30" as="alternateBounds" />
          </mxGeometry>
        </mxCell>
        <mxCell id="XfDkWS_DAa20V64On1dj-118" value="&lt;div&gt;&lt;font color=&quot;#0f0f0f&quot;&gt;port: ModbusPort&lt;/font&gt;&lt;/div&gt;&lt;div&gt;&lt;font color=&quot;#0f0f0f&quot;&gt;status: ComStatus&lt;br&gt;&lt;/font&gt;&lt;/div&gt;" style="text;strokeColor=none;fillColor=none;align=left;verticalAlign=top;spacingLeft=4;spacingRight=4;overflow=hidden;rotatable=0;points=[[0,0.5],[1,0.5]];portConstraint=eastwest;whiteSpace=wrap;html=1;fontStyle=0" vertex="1" parent="XfDkWS_DAa20V64On1dj-117">
          <mxGeometry y="26" width="500" height="34" as="geometry" />
        </mxCell>
        <mxCell id="XfDkWS_DAa20V64On1dj-119" value="" style="line;strokeWidth=1;fillColor=none;align=left;verticalAlign=middle;spacingTop=-1;spacingLeft=3;spacingRight=3;rotatable=0;labelPosition=right;points=[];portConstraint=eastwest;strokeColor=inherit;" vertex="1" parent="XfDkWS_DAa20V64On1dj-117">
          <mxGeometry y="60" width="500" height="8" as="geometry" />
        </mxCell>
        <mxCell id="XfDkWS_DAa20V64On1dj-120" value="&lt;div&gt;pub fn services(&amp;amp;self)-&amp;gt;Vec&amp;lt;Service&amp;gt;&lt;/div&gt;&lt;div&gt;pub fn config(port: &amp;amp;str, timeout: u64)-&amp;gt;Result&amp;lt;Self, Box&amp;lt;dyn Error&amp;gt;&amp;gt;&lt;/div&gt;&lt;div&gt;pub fn run(&amp;amp;self, services: Vec&amp;lt;Service&amp;gt;)-&amp;gt;Vec&amp;lt;JoinHandle&amp;gt;&lt;/div&gt;&lt;div&gt;pub fn senf(&amp;amp;self, msg: ModbusMsg)-&amp;gt;Result&amp;lt;ModbusMsgm Box&amp;lt;dyn Error + `_&amp;gt;&amp;gt;&lt;/div&gt;&lt;div&gt;pub fn read_once(&amp;amp;self, feedback: &amp;amp;mut [u8])-&amp;gt;Result&amp;lt;ModbusMsg, Box&amp;lt;dyn Error + `_&amp;gt;&amp;gt;&lt;/div&gt;&lt;div&gt;pub fn clone(&amp;amp;self)-&amp;gt;Self&lt;/div&gt;&lt;div&gt;pub fn port(&amp;amp;self)-&amp;gt;&amp;amp;ModbusPort&lt;/div&gt;&lt;div&gt;fn sending(port_guard: &amp;amp;mut MutexGuard&amp;lt;SystemPort&amp;gt;, data: &amp;amp;[u8])-&amp;gt;Result&amp;lt;(), io::Error&amp;gt;&lt;/div&gt;&lt;div&gt;fn reading(port_guard: &amp;amp;mut MutexGuard&amp;lt;SystemPort&amp;gt;)-&amp;gt;Result&amp;lt;ModbusMsg, io::Error&amp;gt;&lt;/div&gt;&lt;div&gt;&lt;br&gt;&lt;/div&gt;" style="text;strokeColor=none;fillColor=none;align=left;verticalAlign=top;spacingLeft=4;spacingRight=4;overflow=hidden;rotatable=0;points=[[0,0.5],[1,0.5]];portConstraint=eastwest;whiteSpace=wrap;html=1;" vertex="1" parent="XfDkWS_DAa20V64On1dj-117">
          <mxGeometry y="68" width="500" height="142" as="geometry" />
        </mxCell>
        <mxCell id="XfDkWS_DAa20V64On1dj-121" value="pub struct ComStatus(Arc&amp;lt;RwLock&amp;lt;Connection&amp;gt;&amp;gt;)" style="swimlane;fontStyle=1;align=center;verticalAlign=middle;childLayout=stackLayout;horizontal=1;startSize=26;horizontalStack=0;resizeParent=1;resizeParentMax=0;resizeLast=0;collapsible=1;marginBottom=0;whiteSpace=wrap;html=1;" vertex="1" parent="WIyWlLk6GJQsqaUBKTNV-1">
          <mxGeometry x="1577" y="-274" width="320" height="126" as="geometry">
            <mxRectangle x="-70" y="10" width="170" height="30" as="alternateBounds" />
          </mxGeometry>
        </mxCell>
        <mxCell id="XfDkWS_DAa20V64On1dj-122" value="&lt;div&gt;&lt;font color=&quot;#0f0f0f&quot;&gt;0: &lt;/font&gt;Arc&amp;lt;RwLock&amp;lt;Connection&amp;gt;&amp;gt;&lt;/div&gt;" style="text;strokeColor=none;fillColor=none;align=left;verticalAlign=top;spacingLeft=4;spacingRight=4;overflow=hidden;rotatable=0;points=[[0,0.5],[1,0.5]];portConstraint=eastwest;whiteSpace=wrap;html=1;fontStyle=0" vertex="1" parent="XfDkWS_DAa20V64On1dj-121">
          <mxGeometry y="26" width="320" height="24" as="geometry" />
        </mxCell>
        <mxCell id="XfDkWS_DAa20V64On1dj-123" value="" style="line;strokeWidth=1;fillColor=none;align=left;verticalAlign=middle;spacingTop=-1;spacingLeft=3;spacingRight=3;rotatable=0;labelPosition=right;points=[];portConstraint=eastwest;strokeColor=inherit;" vertex="1" parent="XfDkWS_DAa20V64On1dj-121">
          <mxGeometry y="50" width="320" height="8" as="geometry" />
        </mxCell>
        <mxCell id="XfDkWS_DAa20V64On1dj-124" value="&lt;div&gt;pub fn set_connect(&amp;amp;mut self)&lt;/div&gt;&lt;div&gt;pub fn set_disconnect(&amp;amp;mut self)&lt;/div&gt;&lt;div&gt;pub fn clone(&amp;amp;self)-&amp;gt;Self&lt;/div&gt;&lt;div&gt;pub fn get_status(&amp;amp;self)-&amp;gt;u8&lt;br&gt;&lt;/div&gt;&lt;div&gt;&lt;br&gt;&lt;/div&gt;" style="text;strokeColor=none;fillColor=none;align=left;verticalAlign=top;spacingLeft=4;spacingRight=4;overflow=hidden;rotatable=0;points=[[0,0.5],[1,0.5]];portConstraint=eastwest;whiteSpace=wrap;html=1;" vertex="1" parent="XfDkWS_DAa20V64On1dj-121">
          <mxGeometry y="58" width="320" height="68" as="geometry" />
        </mxCell>
        <mxCell id="XfDkWS_DAa20V64On1dj-125" value="enum Connection" style="swimlane;fontStyle=1;align=center;verticalAlign=middle;childLayout=stackLayout;horizontal=1;startSize=26;horizontalStack=0;resizeParent=1;resizeParentMax=0;resizeLast=0;collapsible=1;marginBottom=0;whiteSpace=wrap;html=1;" vertex="1" parent="WIyWlLk6GJQsqaUBKTNV-1">
          <mxGeometry x="1937" y="-258" width="130" height="110" as="geometry">
            <mxRectangle x="-70" y="10" width="170" height="30" as="alternateBounds" />
          </mxGeometry>
        </mxCell>
        <mxCell id="XfDkWS_DAa20V64On1dj-126" value="&lt;div&gt;&lt;font color=&quot;#0f0f0f&quot;&gt;Connect(u8)&lt;/font&gt;&lt;/div&gt;&lt;div&gt;&lt;font color=&quot;#0f0f0f&quot;&gt;Disconnect(u8)&lt;br&gt;&lt;/font&gt;&lt;/div&gt;" style="text;strokeColor=none;fillColor=none;align=left;verticalAlign=top;spacingLeft=4;spacingRight=4;overflow=hidden;rotatable=0;points=[[0,0.5],[1,0.5]];portConstraint=eastwest;whiteSpace=wrap;html=1;fontStyle=0" vertex="1" parent="XfDkWS_DAa20V64On1dj-125">
          <mxGeometry y="26" width="130" height="34" as="geometry" />
        </mxCell>
        <mxCell id="XfDkWS_DAa20V64On1dj-127" value="" style="line;strokeWidth=1;fillColor=none;align=left;verticalAlign=middle;spacingTop=-1;spacingLeft=3;spacingRight=3;rotatable=0;labelPosition=right;points=[];portConstraint=eastwest;strokeColor=inherit;" vertex="1" parent="XfDkWS_DAa20V64On1dj-125">
          <mxGeometry y="60" width="130" height="8" as="geometry" />
        </mxCell>
        <mxCell id="XfDkWS_DAa20V64On1dj-128" value="&lt;div&gt;fn connect()-&amp;gt;Self&lt;/div&gt;&lt;div&gt;fn disconnect()-&amp;gt;Self&lt;br&gt;&lt;/div&gt;" style="text;strokeColor=none;fillColor=none;align=left;verticalAlign=top;spacingLeft=4;spacingRight=4;overflow=hidden;rotatable=0;points=[[0,0.5],[1,0.5]];portConstraint=eastwest;whiteSpace=wrap;html=1;" vertex="1" parent="XfDkWS_DAa20V64On1dj-125">
          <mxGeometry y="68" width="130" height="42" as="geometry" />
        </mxCell>
        <mxCell id="XfDkWS_DAa20V64On1dj-130" style="edgeStyle=orthogonalEdgeStyle;rounded=0;orthogonalLoop=1;jettySize=auto;html=1;exitX=0;exitY=0.5;exitDx=0;exitDy=0;endArrow=diamondThin;endFill=1;strokeWidth=2;" edge="1" parent="WIyWlLk6GJQsqaUBKTNV-1" source="XfDkWS_DAa20V64On1dj-126">
          <mxGeometry relative="1" as="geometry">
            <mxPoint x="1897" y="-228" as="targetPoint" />
          </mxGeometry>
        </mxCell>
        <mxCell id="XfDkWS_DAa20V64On1dj-131" style="edgeStyle=orthogonalEdgeStyle;rounded=0;orthogonalLoop=1;jettySize=auto;html=1;exitX=0;exitY=0.5;exitDx=0;exitDy=0;entryX=1;entryY=0.5;entryDx=0;entryDy=0;strokeWidth=2;endArrow=diamondThin;endFill=1;" edge="1" parent="WIyWlLk6GJQsqaUBKTNV-1" source="XfDkWS_DAa20V64On1dj-122" target="XfDkWS_DAa20V64On1dj-118">
          <mxGeometry relative="1" as="geometry" />
        </mxCell>
        <mxCell id="XfDkWS_DAa20V64On1dj-135" value="pub struct Service (Box&amp;lt;dyn FnOnce() + Send + &#39;static&amp;gt;)" style="swimlane;fontStyle=1;align=center;verticalAlign=middle;childLayout=stackLayout;horizontal=1;startSize=26;horizontalStack=0;resizeParent=1;resizeParentMax=0;resizeLast=0;collapsible=1;marginBottom=0;whiteSpace=wrap;html=1;" vertex="1" parent="WIyWlLk6GJQsqaUBKTNV-1">
          <mxGeometry x="997" y="-490" width="360" height="98" as="geometry">
            <mxRectangle x="-70" y="10" width="170" height="30" as="alternateBounds" />
          </mxGeometry>
        </mxCell>
        <mxCell id="XfDkWS_DAa20V64On1dj-136" value="&lt;div&gt;&lt;font color=&quot;#0f0f0f&quot;&gt;0: &lt;/font&gt;Box&amp;lt;dyn FnOnce() + Send + &#39;static&amp;gt;&lt;/div&gt;" style="text;strokeColor=none;fillColor=none;align=left;verticalAlign=top;spacingLeft=4;spacingRight=4;overflow=hidden;rotatable=0;points=[[0,0.5],[1,0.5]];portConstraint=eastwest;whiteSpace=wrap;html=1;fontStyle=0" vertex="1" parent="XfDkWS_DAa20V64On1dj-135">
          <mxGeometry y="26" width="360" height="24" as="geometry" />
        </mxCell>
        <mxCell id="XfDkWS_DAa20V64On1dj-137" value="" style="line;strokeWidth=1;fillColor=none;align=left;verticalAlign=middle;spacingTop=-1;spacingLeft=3;spacingRight=3;rotatable=0;labelPosition=right;points=[];portConstraint=eastwest;strokeColor=inherit;" vertex="1" parent="XfDkWS_DAa20V64On1dj-135">
          <mxGeometry y="50" width="360" height="8" as="geometry" />
        </mxCell>
        <mxCell id="XfDkWS_DAa20V64On1dj-138" value="&lt;div&gt;fn new(closure:&amp;nbsp; impl FnOnce() + Send + &#39;static)-&amp;gt;Self&lt;/div&gt;&lt;div&gt;pub fn new_list(bus: &amp;amp;Modbus)-&amp;gt;Vec&amp;lt;Self&amp;gt;&lt;br&gt;&lt;/div&gt;" style="text;strokeColor=none;fillColor=none;align=left;verticalAlign=top;spacingLeft=4;spacingRight=4;overflow=hidden;rotatable=0;points=[[0,0.5],[1,0.5]];portConstraint=eastwest;whiteSpace=wrap;html=1;" vertex="1" parent="XfDkWS_DAa20V64On1dj-135">
          <mxGeometry y="58" width="360" height="40" as="geometry" />
        </mxCell>
        <mxCell id="XfDkWS_DAa20V64On1dj-139" style="edgeStyle=orthogonalEdgeStyle;rounded=0;orthogonalLoop=1;jettySize=auto;html=1;exitX=0;exitY=0.5;exitDx=0;exitDy=0;entryX=0;entryY=0.5;entryDx=0;entryDy=0;strokeWidth=2;endArrow=diamondThin;endFill=1;" edge="1" parent="WIyWlLk6GJQsqaUBKTNV-1" source="XfDkWS_DAa20V64On1dj-118" target="XfDkWS_DAa20V64On1dj-136">
          <mxGeometry relative="1" as="geometry">
            <Array as="points">
              <mxPoint x="957" y="-307" />
              <mxPoint x="957" y="-452" />
            </Array>
          </mxGeometry>
        </mxCell>
        <mxCell id="XfDkWS_DAa20V64On1dj-140" value="pub struct MqttClient" style="swimlane;fontStyle=1;align=center;verticalAlign=middle;childLayout=stackLayout;horizontal=1;startSize=26;horizontalStack=0;resizeParent=1;resizeParentMax=0;resizeLast=0;collapsible=1;marginBottom=0;whiteSpace=wrap;html=1;" vertex="1" parent="WIyWlLk6GJQsqaUBKTNV-1">
          <mxGeometry x="-282.94999999999993" y="-350" width="560" height="220" as="geometry">
            <mxRectangle x="-70" y="10" width="170" height="30" as="alternateBounds" />
          </mxGeometry>
        </mxCell>
        <mxCell id="XfDkWS_DAa20V64On1dj-141" value="&lt;div&gt;&lt;font color=&quot;#0f0f0f&quot;&gt;client: AsyncClient&lt;/font&gt;&lt;/div&gt;&lt;div&gt;&lt;font color=&quot;#0f0f0f&quot;&gt;connect_options: Option&amp;lt;ConnectOptions&amp;gt;&lt;/font&gt;&lt;/div&gt;&lt;div&gt;&lt;font color=&quot;#0f0f0f&quot;&gt;callbacks: Callbacks&lt;br&gt;&lt;/font&gt;&lt;/div&gt;" style="text;strokeColor=none;fillColor=none;align=left;verticalAlign=top;spacingLeft=4;spacingRight=4;overflow=hidden;rotatable=0;points=[[0,0.5],[1,0.5]];portConstraint=eastwest;whiteSpace=wrap;html=1;fontStyle=0" vertex="1" parent="XfDkWS_DAa20V64On1dj-140">
          <mxGeometry y="26" width="560" height="54" as="geometry" />
        </mxCell>
        <mxCell id="XfDkWS_DAa20V64On1dj-142" value="" style="line;strokeWidth=1;fillColor=none;align=left;verticalAlign=middle;spacingTop=-1;spacingLeft=3;spacingRight=3;rotatable=0;labelPosition=right;points=[];portConstraint=eastwest;strokeColor=inherit;" vertex="1" parent="XfDkWS_DAa20V64On1dj-140">
          <mxGeometry y="80" width="560" height="8" as="geometry" />
        </mxCell>
        <mxCell id="XfDkWS_DAa20V64On1dj-143" value="&lt;div&gt;pub fn callbacks()-&amp;gt;Callbacks&lt;/div&gt;&lt;div&gt;pub fn config(mut callback: Callbacks)-&amp;gt;Result&amp;lt;Self, Box&amp;lt;dyn Error&amp;gt;&amp;gt;&lt;/div&gt;&lt;div&gt;pub fn run(&amp;amp;mut self)&lt;/div&gt;&lt;div&gt;pub fn publish(&amp;amp;self, requeszt: &amp;amp;Request, timeout: Duration, topic: &amp;amp;str)-&amp;gt;Reult&amp;lt;(), paho_mqtt::Error&amp;gt;&lt;/div&gt;&lt;div&gt;pub fn client(&amp;amp;self)-&amp;gt;&amp;amp;AsyncClient&lt;/div&gt;&lt;div&gt;pub fn options(&amp;amp;self)-&amp;gt;ConnectOptions&lt;/div&gt;&lt;div&gt;fn from(client: AsyncClient, connect_options: ConnectOptions, callbacks: Callbacks)-&amp;gt;Self&lt;/div&gt;&lt;div&gt;fn callback(&amp;amp;mut self)-&amp;gt;&amp;amp; mut Callbacks&lt;br&gt;&lt;/div&gt;&lt;div&gt;&lt;br&gt;&lt;/div&gt;" style="text;strokeColor=none;fillColor=none;align=left;verticalAlign=top;spacingLeft=4;spacingRight=4;overflow=hidden;rotatable=0;points=[[0,0.5],[1,0.5]];portConstraint=eastwest;whiteSpace=wrap;html=1;" vertex="1" parent="XfDkWS_DAa20V64On1dj-140">
          <mxGeometry y="88" width="560" height="132" as="geometry" />
        </mxCell>
        <mxCell id="XfDkWS_DAa20V64On1dj-154" value="pub struct Callbacks" style="swimlane;fontStyle=1;align=center;verticalAlign=middle;childLayout=stackLayout;horizontal=1;startSize=26;horizontalStack=0;resizeParent=1;resizeParentMax=0;resizeLast=0;collapsible=1;marginBottom=0;whiteSpace=wrap;html=1;" vertex="1" parent="WIyWlLk6GJQsqaUBKTNV-1">
          <mxGeometry x="-282.94999999999993" y="-600" width="410" height="210" as="geometry">
            <mxRectangle x="-70" y="10" width="170" height="30" as="alternateBounds" />
          </mxGeometry>
        </mxCell>
        <mxCell id="XfDkWS_DAa20V64On1dj-155" value="&lt;div&gt;&lt;div style=&quot;color: rgb(212, 212, 212); font-weight: normal; line-height: 40%;&quot; align=&quot;left&quot;&gt;&lt;div style=&quot;line-height: 40%;&quot;&gt;&lt;p style=&quot;line-height: 40%;&quot;&gt;&lt;font color=&quot;#080808&quot;&gt;message_callback: Option&amp;lt;fn(&amp;amp;AsyncClient, Option&amp;lt;Message&amp;gt;)&amp;gt;,&lt;/font&gt;&lt;/p&gt;&lt;/div&gt;&lt;div style=&quot;line-height: 40%;&quot;&gt;&lt;p style=&quot;line-height: 40%;&quot;&gt;&lt;font color=&quot;#080808&quot;&gt;    connected: Option&amp;lt;fn(&amp;amp;AsyncClient)&amp;gt;,&lt;/font&gt;&lt;/p&gt;&lt;/div&gt;&lt;div style=&quot;line-height: 40%;&quot;&gt;&lt;p style=&quot;line-height: 40%;&quot;&gt;&lt;font color=&quot;#080808&quot;&gt;    connection_lost: Option&amp;lt;fn(&amp;amp;AsyncClient)&amp;gt;,&lt;/font&gt;&lt;/p&gt;&lt;/div&gt;&lt;div style=&quot;line-height: 40%;&quot;&gt;&lt;p style=&quot;line-height: 40%;&quot;&gt;&lt;font color=&quot;#080808&quot;&gt;    on_connect_success: Option&amp;lt;fn(&amp;amp;AsyncClient, u16)&amp;gt;,&lt;/font&gt;&lt;/p&gt;&lt;p style=&quot;line-height: 40%;&quot;&gt;&lt;font color=&quot;#080808&quot;&gt;on_connect_failure: Option&amp;lt;fn(&amp;amp;AsyncClient, u16, i32)&amp;gt;&lt;/font&gt;&lt;/p&gt;&lt;/div&gt;&lt;/div&gt;&lt;/div&gt;" style="text;strokeColor=none;fillColor=none;align=left;verticalAlign=top;spacingLeft=4;spacingRight=4;overflow=hidden;rotatable=0;points=[[0,0.5],[1,0.5]];portConstraint=eastwest;whiteSpace=wrap;html=1;fontStyle=0" vertex="1" parent="XfDkWS_DAa20V64On1dj-154">
          <mxGeometry y="26" width="410" height="94" as="geometry" />
        </mxCell>
        <mxCell id="XfDkWS_DAa20V64On1dj-156" value="" style="line;strokeWidth=1;fillColor=none;align=left;verticalAlign=middle;spacingTop=-1;spacingLeft=3;spacingRight=3;rotatable=0;labelPosition=right;points=[];portConstraint=eastwest;strokeColor=inherit;" vertex="1" parent="XfDkWS_DAa20V64On1dj-154">
          <mxGeometry y="120" width="410" height="8" as="geometry" />
        </mxCell>
        <mxCell id="XfDkWS_DAa20V64On1dj-157" value="&lt;div&gt;pub fn message_callback(&amp;amp;mut self)-&amp;gt;&lt;font color=&quot;#080808&quot;&gt;fn(&amp;amp;AsyncClient, Option&amp;lt;Message&amp;gt;&lt;/font&gt;&lt;/div&gt;&lt;div&gt;&lt;font color=&quot;#080808&quot;&gt;pub fn connected(&amp;amp;mut self)-&amp;gt;&lt;/font&gt;&lt;font color=&quot;#080808&quot;&gt;fn(&amp;amp;AsyncClient)&lt;/font&gt;&lt;/div&gt;&lt;div&gt;&lt;font color=&quot;#080808&quot;&gt;pub fn connection_lost(&amp;amp;mut self)-&amp;gt;&lt;/font&gt;&lt;font color=&quot;#080808&quot;&gt;fn(&amp;amp;AsyncClient)&lt;/font&gt;&lt;/div&gt;&lt;div&gt;&lt;font color=&quot;#080808&quot;&gt;pub fn on_connect_success(&amp;amp;mut self)-&amp;gt;&lt;/font&gt;&lt;font color=&quot;#080808&quot;&gt;fn(&amp;amp;AsyncClient, u16)&lt;/font&gt;&lt;/div&gt;&lt;div&gt;&lt;font color=&quot;#080808&quot;&gt;pub fn on_connect_failure(&amp;amp;mut self)-&amp;gt;&lt;/font&gt;&lt;font color=&quot;#080808&quot;&gt;fn(&amp;amp;AsyncClient, u16, i32)&lt;/font&gt;&lt;/div&gt;&lt;div&gt;&lt;br&gt;&lt;/div&gt;" style="text;strokeColor=none;fillColor=none;align=left;verticalAlign=top;spacingLeft=4;spacingRight=4;overflow=hidden;rotatable=0;points=[[0,0.5],[1,0.5]];portConstraint=eastwest;whiteSpace=wrap;html=1;" vertex="1" parent="XfDkWS_DAa20V64On1dj-154">
          <mxGeometry y="128" width="410" height="82" as="geometry" />
        </mxCell>
        <mxCell id="XfDkWS_DAa20V64On1dj-158" style="edgeStyle=orthogonalEdgeStyle;rounded=0;orthogonalLoop=1;jettySize=auto;html=1;exitX=0;exitY=0.5;exitDx=0;exitDy=0;entryX=0;entryY=0.5;entryDx=0;entryDy=0;strokeWidth=2;endArrow=diamondThin;endFill=1;" edge="1" parent="WIyWlLk6GJQsqaUBKTNV-1" source="XfDkWS_DAa20V64On1dj-155" target="XfDkWS_DAa20V64On1dj-141">
          <mxGeometry relative="1" as="geometry" />
        </mxCell>
        <mxCell id="XfDkWS_DAa20V64On1dj-159" value="&lt;div style=&quot;font-family: &amp;quot;Droid Sans Mono&amp;quot;, &amp;quot;monospace&amp;quot;, monospace; font-weight: normal; line-height: 22px;&quot;&gt;&lt;div&gt;&lt;font style=&quot;font-size: 12px;&quot; face=&quot;Helvetica&quot; color=&quot;#030303&quot;&gt;&lt;b&gt;pub trait JsonPattern&lt;br&gt;&lt;/b&gt;&lt;/font&gt;&lt;/div&gt;&lt;/div&gt;" style="swimlane;fontStyle=0;childLayout=stackLayout;horizontal=1;startSize=30;horizontalStack=0;resizeParent=1;resizeParentMax=0;resizeLast=0;collapsible=1;marginBottom=0;whiteSpace=wrap;html=1;" vertex="1" parent="WIyWlLk6GJQsqaUBKTNV-1">
          <mxGeometry x="1007" y="415" width="300" height="60" as="geometry" />
        </mxCell>
        <mxCell id="XfDkWS_DAa20V64On1dj-160" value="&lt;div&gt;fn assign(&amp;amp;mut self, values: Vec&amp;lt;JsonValue&amp;gt;)&lt;/div&gt;&lt;div&gt;fn fill(&amp;amp;mut self, values: &amp;amp;mut IntoIter&amp;lt;JsonValue&amp;gt;)&lt;br&gt;&lt;/div&gt;" style="text;strokeColor=none;fillColor=none;align=left;verticalAlign=middle;spacingLeft=4;spacingRight=4;overflow=hidden;points=[[0,0.5],[1,0.5]];portConstraint=eastwest;rotatable=0;whiteSpace=wrap;html=1;" vertex="1" parent="XfDkWS_DAa20V64On1dj-159">
          <mxGeometry y="30" width="300" height="30" as="geometry" />
        </mxCell>
        <mxCell id="XfDkWS_DAa20V64On1dj-163" style="edgeStyle=orthogonalEdgeStyle;rounded=0;orthogonalLoop=1;jettySize=auto;html=1;entryX=0;entryY=0.25;entryDx=0;entryDy=0;dashed=1;strokeWidth=2;endArrow=block;endFill=0;" edge="1" parent="WIyWlLk6GJQsqaUBKTNV-1" source="XfDkWS_DAa20V64On1dj-161" target="XfDkWS_DAa20V64On1dj-159">
          <mxGeometry relative="1" as="geometry" />
        </mxCell>
        <mxCell id="XfDkWS_DAa20V64On1dj-161" value="JsonValue" style="swimlane;fontStyle=1;align=center;verticalAlign=middle;childLayout=stackLayout;horizontal=1;startSize=26;horizontalStack=0;resizeParent=1;resizeParentMax=0;resizeLast=0;collapsible=1;marginBottom=0;whiteSpace=wrap;html=1;" vertex="1" parent="WIyWlLk6GJQsqaUBKTNV-1">
          <mxGeometry x="839.5" y="413" width="85" height="34" as="geometry">
            <mxRectangle x="-430" y="-10" width="230" height="30" as="alternateBounds" />
          </mxGeometry>
        </mxCell>
        <mxCell id="XfDkWS_DAa20V64On1dj-162" value="" style="line;strokeWidth=1;fillColor=none;align=left;verticalAlign=middle;spacingTop=-1;spacingLeft=3;spacingRight=3;rotatable=0;labelPosition=right;points=[];portConstraint=eastwest;strokeColor=inherit;" vertex="1" parent="XfDkWS_DAa20V64On1dj-161">
          <mxGeometry y="26" width="85" height="8" as="geometry" />
        </mxCell>
        <mxCell id="XfDkWS_DAa20V64On1dj-164" value="pub struct App" style="swimlane;fontStyle=1;align=center;verticalAlign=middle;childLayout=stackLayout;horizontal=1;startSize=26;horizontalStack=0;resizeParent=1;resizeParentMax=0;resizeLast=0;collapsible=1;marginBottom=0;whiteSpace=wrap;html=1;" vertex="1" parent="WIyWlLk6GJQsqaUBKTNV-1">
          <mxGeometry x="480" y="-340" width="300" height="170" as="geometry">
            <mxRectangle x="-70" y="10" width="170" height="30" as="alternateBounds" />
          </mxGeometry>
        </mxCell>
        <mxCell id="XfDkWS_DAa20V64On1dj-165" value="&lt;div&gt;&lt;font color=&quot;#0f0f0f&quot;&gt;modbus: Modbus&lt;br&gt;&lt;/font&gt;&lt;/div&gt;&lt;div&gt;&lt;font color=&quot;#0f0f0f&quot;&gt;mqtt_client: MqttClient&lt;br&gt;&lt;/font&gt;&lt;/div&gt;" style="text;strokeColor=none;fillColor=none;align=left;verticalAlign=top;spacingLeft=4;spacingRight=4;overflow=hidden;rotatable=0;points=[[0,0.5],[1,0.5]];portConstraint=eastwest;whiteSpace=wrap;html=1;fontStyle=0" vertex="1" parent="XfDkWS_DAa20V64On1dj-164">
          <mxGeometry y="26" width="300" height="34" as="geometry" />
        </mxCell>
        <mxCell id="XfDkWS_DAa20V64On1dj-166" value="" style="line;strokeWidth=1;fillColor=none;align=left;verticalAlign=middle;spacingTop=-1;spacingLeft=3;spacingRight=3;rotatable=0;labelPosition=right;points=[];portConstraint=eastwest;strokeColor=inherit;" vertex="1" parent="XfDkWS_DAa20V64On1dj-164">
          <mxGeometry y="60" width="300" height="8" as="geometry" />
        </mxCell>
        <mxCell id="XfDkWS_DAa20V64On1dj-167" value="&lt;div&gt;pub fn config()-&amp;gt;Result(Self, Box&amp;lt;dyn Error&amp;gt;)&lt;/div&gt;&lt;div&gt;pub fn launch(mut self)-&amp;gt;Self&lt;/div&gt;&lt;div&gt;pub fn run_forever(self)-&amp;gt;Result&amp;lt;(), Box&amp;lt;dyn Error&amp;gt;&amp;gt;&lt;/div&gt;&lt;div&gt;fn modbus(&amp;amp;self)-&amp;gt;&amp;amp;Modbus&lt;/div&gt;&lt;div&gt;fn mqtt_client(&amp;amp;self)-&amp;gt;&amp;amp;MqttClient&lt;/div&gt;&lt;div&gt;fn mqtt_client_mut(&amp;amp;mut self)-&amp;gt;&amp;amp;mut MqttClient&lt;br&gt;&lt;/div&gt;" style="text;strokeColor=none;fillColor=none;align=left;verticalAlign=top;spacingLeft=4;spacingRight=4;overflow=hidden;rotatable=0;points=[[0,0.5],[1,0.5]];portConstraint=eastwest;whiteSpace=wrap;html=1;" vertex="1" parent="XfDkWS_DAa20V64On1dj-164">
          <mxGeometry y="68" width="300" height="102" as="geometry" />
        </mxCell>
        <mxCell id="XfDkWS_DAa20V64On1dj-168" style="edgeStyle=orthogonalEdgeStyle;rounded=0;orthogonalLoop=1;jettySize=auto;html=1;exitX=0;exitY=0.5;exitDx=0;exitDy=0;entryX=1;entryY=0.5;entryDx=0;entryDy=0;strokeWidth=2;endArrow=diamondThin;endFill=1;" edge="1" parent="WIyWlLk6GJQsqaUBKTNV-1" source="XfDkWS_DAa20V64On1dj-120" target="XfDkWS_DAa20V64On1dj-165">
          <mxGeometry relative="1" as="geometry" />
        </mxCell>
        <mxCell id="XfDkWS_DAa20V64On1dj-169" style="edgeStyle=orthogonalEdgeStyle;rounded=0;orthogonalLoop=1;jettySize=auto;html=1;exitX=1;exitY=0.5;exitDx=0;exitDy=0;entryX=0;entryY=0.5;entryDx=0;entryDy=0;strokeWidth=2;endArrow=diamondThin;endFill=1;" edge="1" parent="WIyWlLk6GJQsqaUBKTNV-1" source="XfDkWS_DAa20V64On1dj-141" target="XfDkWS_DAa20V64On1dj-165">
          <mxGeometry relative="1" as="geometry" />
        </mxCell>
        <mxCell id="XfDkWS_DAa20V64On1dj-170" value="pub struct CubeSerialNumber(Lazy&amp;lt;String&amp;gt;)" style="swimlane;fontStyle=1;align=center;verticalAlign=middle;childLayout=stackLayout;horizontal=1;startSize=26;horizontalStack=0;resizeParent=1;resizeParentMax=0;resizeLast=0;collapsible=1;marginBottom=0;whiteSpace=wrap;html=1;" vertex="1" parent="WIyWlLk6GJQsqaUBKTNV-1">
          <mxGeometry x="480" y="-510" width="290" height="100" as="geometry">
            <mxRectangle x="-70" y="10" width="170" height="30" as="alternateBounds" />
          </mxGeometry>
        </mxCell>
        <mxCell id="XfDkWS_DAa20V64On1dj-171" value="&lt;div&gt;&lt;font color=&quot;#0f0f0f&quot;&gt;0: &lt;/font&gt;Lazy&amp;lt;String&amp;gt;&lt;/div&gt;" style="text;strokeColor=none;fillColor=none;align=left;verticalAlign=top;spacingLeft=4;spacingRight=4;overflow=hidden;rotatable=0;points=[[0,0.5],[1,0.5]];portConstraint=eastwest;whiteSpace=wrap;html=1;fontStyle=0" vertex="1" parent="XfDkWS_DAa20V64On1dj-170">
          <mxGeometry y="26" width="290" height="24" as="geometry" />
        </mxCell>
        <mxCell id="XfDkWS_DAa20V64On1dj-172" value="" style="line;strokeWidth=1;fillColor=none;align=left;verticalAlign=middle;spacingTop=-1;spacingLeft=3;spacingRight=3;rotatable=0;labelPosition=right;points=[];portConstraint=eastwest;strokeColor=inherit;" vertex="1" parent="XfDkWS_DAa20V64On1dj-170">
          <mxGeometry y="50" width="290" height="8" as="geometry" />
        </mxCell>
        <mxCell id="XfDkWS_DAa20V64On1dj-173" value="&lt;div&gt;pub fn set(serial_num: String)&lt;/div&gt;&lt;div&gt;pub fn get()-&amp;gt;&amp;amp;&#39;static str&lt;br&gt;&lt;/div&gt;" style="text;strokeColor=none;fillColor=none;align=left;verticalAlign=top;spacingLeft=4;spacingRight=4;overflow=hidden;rotatable=0;points=[[0,0.5],[1,0.5]];portConstraint=eastwest;whiteSpace=wrap;html=1;" vertex="1" parent="XfDkWS_DAa20V64On1dj-170">
          <mxGeometry y="58" width="290" height="42" as="geometry" />
        </mxCell>
      </root>
    </mxGraphModel>
  </diagram>
</mxfile>
